# xmcd
# 
# Track frame offsets:
#     360
#     10235
#     24290
#     37115
#     55600
#     72037
#     84687
#     100055
#     118087
#     129250
# 
# Disc length: 1918
# 
# Revision: 2
# Processed by: cddbd v1.5.2PL0 Copyright (c) Steve Scherf et al.
# Submitted via: fre:ac v1.0.17
# 
DISCID=78077a0a
DTITLE=Anne Murray - Anne Murray's Greatest Hits
DYEAR=0
DGENRE=
TTITLE0=Snowbird
TTITLE1=Danny's Song
TTITLE2=A Love Song
TTITLE3=You Won't See Me
TTITLE4=You Needed Me
TTITLE5=I Just Fall In Love Again
TTITLE6=Shadows In The Moonlight
TTITLE7=Broken Hearted Me
TTITLE8=Daydream Believer
TTITLE9=Could I Have This Dance
EXTD=
EXTT0=
EXTT1=
EXTT2=
EXTT3=
EXTT4=
EXTT5=
EXTT6=
EXTT7=
EXTT8=
EXTT9=
PLAYORDER=
